<?xml version="1.0" encoding="utf-8"?>
<svg xmlns="http://www.w3.org/2000/svg" xmlns:xlink="http://www.w3.org/1999/xlink" width="600" height="400" viewBox="0 0 600 400">
<defs>
  <clipPath id="clip7200">
    <rect x="0" y="0" width="600" height="400"/>
  </clipPath>
</defs>
<polygon clip-path="url(#clip7200)" points="
0,400 600,400 600,0 0,0 
  " fill="#ffffff" fill-opacity="1"/>
<defs>
  <clipPath id="clip7201">
    <rect x="120" y="0" width="421" height="400"/>
  </clipPath>
</defs>
<polygon clip-path="url(#clip7200)" points="
29.1292,375.869 580.315,375.869 580.315,11.811 29.1292,11.811 
  " fill="#ffffff" fill-opacity="1"/>
<defs>
  <clipPath id="clip7202">
    <rect x="29" y="11" width="552" height="365"/>
  </clipPath>
</defs>
<polyline clip-path="url(#clip7202)" style="stroke:#000000; stroke-width:0.5; stroke-opacity:0.1; fill:none" points="
  29.1292,375.869 29.1292,11.811 
  "/>
<polyline clip-path="url(#clip7202)" style="stroke:#000000; stroke-width:0.5; stroke-opacity:0.1; fill:none" points="
  212.858,375.869 212.858,11.811 
  "/>
<polyline clip-path="url(#clip7202)" style="stroke:#000000; stroke-width:0.5; stroke-opacity:0.1; fill:none" points="
  396.586,375.869 396.586,11.811 
  "/>
<polyline clip-path="url(#clip7202)" style="stroke:#000000; stroke-width:0.5; stroke-opacity:0.1; fill:none" points="
  580.315,375.869 580.315,11.811 
  "/>
<polyline clip-path="url(#clip7202)" style="stroke:#000000; stroke-width:0.5; stroke-opacity:0.1; fill:none" points="
  29.1292,320.469 580.315,320.469 
  "/>
<polyline clip-path="url(#clip7202)" style="stroke:#000000; stroke-width:0.5; stroke-opacity:0.1; fill:none" points="
  29.1292,241.326 580.315,241.326 
  "/>
<polyline clip-path="url(#clip7202)" style="stroke:#000000; stroke-width:0.5; stroke-opacity:0.1; fill:none" points="
  29.1292,162.183 580.315,162.183 
  "/>
<polyline clip-path="url(#clip7202)" style="stroke:#000000; stroke-width:0.5; stroke-opacity:0.1; fill:none" points="
  29.1292,83.0397 580.315,83.0397 
  "/>
<polyline clip-path="url(#clip7200)" style="stroke:#000000; stroke-width:1; stroke-opacity:1; fill:none" points="
  29.1292,375.869 580.315,375.869 
  "/>
<polyline clip-path="url(#clip7200)" style="stroke:#000000; stroke-width:1; stroke-opacity:1; fill:none" points="
  29.1292,375.869 29.1292,11.811 
  "/>
<polyline clip-path="url(#clip7200)" style="stroke:#000000; stroke-width:1; stroke-opacity:1; fill:none" points="
  29.1292,375.869 29.1292,370.408 
  "/>
<polyline clip-path="url(#clip7200)" style="stroke:#000000; stroke-width:1; stroke-opacity:1; fill:none" points="
  212.858,375.869 212.858,370.408 
  "/>
<polyline clip-path="url(#clip7200)" style="stroke:#000000; stroke-width:1; stroke-opacity:1; fill:none" points="
  396.586,375.869 396.586,370.408 
  "/>
<polyline clip-path="url(#clip7200)" style="stroke:#000000; stroke-width:1; stroke-opacity:1; fill:none" points="
  580.315,375.869 580.315,370.408 
  "/>
<polyline clip-path="url(#clip7200)" style="stroke:#000000; stroke-width:1; stroke-opacity:1; fill:none" points="
  29.1292,320.469 37.397,320.469 
  "/>
<polyline clip-path="url(#clip7200)" style="stroke:#000000; stroke-width:1; stroke-opacity:1; fill:none" points="
  29.1292,241.326 37.397,241.326 
  "/>
<polyline clip-path="url(#clip7200)" style="stroke:#000000; stroke-width:1; stroke-opacity:1; fill:none" points="
  29.1292,162.183 37.397,162.183 
  "/>
<polyline clip-path="url(#clip7200)" style="stroke:#000000; stroke-width:1; stroke-opacity:1; fill:none" points="
  29.1292,83.0397 37.397,83.0397 
  "/>
<g clip-path="url(#clip7200)">
<text style="fill:#000000; fill-opacity:1; font-family:Arial,Helvetica Neue,Helvetica,sans-serif; font-size:12; text-anchor:middle;" transform="rotate(0, 29.1292, 389.669)" x="29.1292" y="389.669">0</text>
</g>
<g clip-path="url(#clip7200)">
<text style="fill:#000000; fill-opacity:1; font-family:Arial,Helvetica Neue,Helvetica,sans-serif; font-size:12; text-anchor:middle;" transform="rotate(0, 212.858, 389.669)" x="212.858" y="389.669">1</text>
</g>
<g clip-path="url(#clip7200)">
<text style="fill:#000000; fill-opacity:1; font-family:Arial,Helvetica Neue,Helvetica,sans-serif; font-size:12; text-anchor:middle;" transform="rotate(0, 396.586, 389.669)" x="396.586" y="389.669">2</text>
</g>
<g clip-path="url(#clip7200)">
<text style="fill:#000000; fill-opacity:1; font-family:Arial,Helvetica Neue,Helvetica,sans-serif; font-size:12; text-anchor:middle;" transform="rotate(0, 580.315, 389.669)" x="580.315" y="389.669">3</text>
</g>
<g clip-path="url(#clip7200)">
<text style="fill:#000000; fill-opacity:1; font-family:Arial,Helvetica Neue,Helvetica,sans-serif; font-size:12; text-anchor:end;" transform="rotate(0, 23.1292, 324.969)" x="23.1292" y="324.969">60</text>
</g>
<g clip-path="url(#clip7200)">
<text style="fill:#000000; fill-opacity:1; font-family:Arial,Helvetica Neue,Helvetica,sans-serif; font-size:12; text-anchor:end;" transform="rotate(0, 23.1292, 245.826)" x="23.1292" y="245.826">65</text>
</g>
<g clip-path="url(#clip7200)">
<text style="fill:#000000; fill-opacity:1; font-family:Arial,Helvetica Neue,Helvetica,sans-serif; font-size:12; text-anchor:end;" transform="rotate(0, 23.1292, 166.683)" x="23.1292" y="166.683">70</text>
</g>
<g clip-path="url(#clip7200)">
<text style="fill:#000000; fill-opacity:1; font-family:Arial,Helvetica Neue,Helvetica,sans-serif; font-size:12; text-anchor:end;" transform="rotate(0, 23.1292, 87.5397)" x="23.1292" y="87.5397">75</text>
</g>
<polygon clip-path="url(#clip7202)" points="
29.1292,59.2968 98.0274,59.2968 98.0274,43.4682 29.1292,43.4682 29.1292,59.2968 
  " fill="#009af9" fill-opacity="1"/>
<polyline clip-path="url(#clip7202)" style="stroke:#000000; stroke-width:1; stroke-opacity:1; fill:none" points="
  29.1292,59.2968 98.0274,59.2968 98.0274,43.4682 29.1292,43.4682 29.1292,59.2968 
  "/>
<polygon clip-path="url(#clip7202)" points="
98.0274,27.6396 166.926,27.6396 166.926,11.811 98.0274,11.811 98.0274,27.6396 
  " fill="#009af9" fill-opacity="1"/>
<polyline clip-path="url(#clip7202)" style="stroke:#000000; stroke-width:1; stroke-opacity:1; fill:none" points="
  98.0274,27.6396 166.926,27.6396 166.926,11.811 98.0274,11.811 98.0274,27.6396 
  "/>
<polygon clip-path="url(#clip7202)" points="
98.0274,217.583 166.926,217.583 166.926,201.754 98.0274,201.754 98.0274,217.583 
  " fill="#009af9" fill-opacity="1"/>
<polyline clip-path="url(#clip7202)" style="stroke:#000000; stroke-width:1; stroke-opacity:1; fill:none" points="
  98.0274,217.583 166.926,217.583 166.926,201.754 98.0274,201.754 98.0274,217.583 
  "/>
<polygon clip-path="url(#clip7202)" points="
98.0274,344.211 166.926,344.211 166.926,328.383 98.0274,328.383 98.0274,344.211 
  " fill="#009af9" fill-opacity="1"/>
<polyline clip-path="url(#clip7202)" style="stroke:#000000; stroke-width:1; stroke-opacity:1; fill:none" points="
  98.0274,344.211 166.926,344.211 166.926,328.383 98.0274,328.383 98.0274,344.211 
  "/>
<polygon clip-path="url(#clip7202)" points="
166.926,59.2968 201.375,59.2968 201.375,43.4682 166.926,43.4682 166.926,59.2968 
  " fill="#009af9" fill-opacity="1"/>
<polyline clip-path="url(#clip7202)" style="stroke:#000000; stroke-width:1; stroke-opacity:1; fill:none" points="
  166.926,59.2968 201.375,59.2968 201.375,43.4682 166.926,43.4682 166.926,59.2968 
  "/>
<polygon clip-path="url(#clip7202)" points="
166.926,217.583 304.722,217.583 304.722,201.754 166.926,201.754 166.926,217.583 
  " fill="#009af9" fill-opacity="1"/>
<polyline clip-path="url(#clip7202)" style="stroke:#000000; stroke-width:1; stroke-opacity:1; fill:none" points="
  166.926,217.583 304.722,217.583 304.722,201.754 166.926,201.754 166.926,217.583 
  "/>
<polygon clip-path="url(#clip7202)" points="
166.926,328.383 304.722,328.383 304.722,312.554 166.926,312.554 166.926,328.383 
  " fill="#009af9" fill-opacity="1"/>
<polyline clip-path="url(#clip7202)" style="stroke:#000000; stroke-width:1; stroke-opacity:1; fill:none" points="
  166.926,328.383 304.722,328.383 304.722,312.554 166.926,312.554 166.926,328.383 
  "/>
<polygon clip-path="url(#clip7202)" points="
201.375,90.954 235.824,90.954 235.824,75.1254 201.375,75.1254 201.375,90.954 
  " fill="#009af9" fill-opacity="1"/>
<polyline clip-path="url(#clip7202)" style="stroke:#000000; stroke-width:1; stroke-opacity:1; fill:none" points="
  201.375,90.954 235.824,90.954 235.824,75.1254 201.375,75.1254 201.375,90.954 
  "/>
<polygon clip-path="url(#clip7202)" points="
235.824,106.783 270.273,106.783 270.273,90.954 235.824,90.954 235.824,106.783 
  " fill="#009af9" fill-opacity="1"/>
<polyline clip-path="url(#clip7202)" style="stroke:#000000; stroke-width:1; stroke-opacity:1; fill:none" points="
  235.824,106.783 270.273,106.783 270.273,90.954 235.824,90.954 235.824,106.783 
  "/>
<polygon clip-path="url(#clip7202)" points="
270.273,138.44 304.722,138.44 304.722,122.611 270.273,122.611 270.273,138.44 
  " fill="#009af9" fill-opacity="1"/>
<polyline clip-path="url(#clip7202)" style="stroke:#000000; stroke-width:1; stroke-opacity:1; fill:none" points="
  270.273,138.44 304.722,138.44 304.722,122.611 270.273,122.611 270.273,138.44 
  "/>
<polygon clip-path="url(#clip7202)" points="
304.722,90.954 373.62,90.954 373.62,75.1254 304.722,75.1254 304.722,90.954 
  " fill="#009af9" fill-opacity="1"/>
<polyline clip-path="url(#clip7202)" style="stroke:#000000; stroke-width:1; stroke-opacity:1; fill:none" points="
  304.722,90.954 373.62,90.954 373.62,75.1254 304.722,75.1254 304.722,90.954 
  "/>
<polygon clip-path="url(#clip7202)" points="
373.62,59.2968 442.519,59.2968 442.519,43.4682 373.62,43.4682 373.62,59.2968 
  " fill="#009af9" fill-opacity="1"/>
<polyline clip-path="url(#clip7202)" style="stroke:#000000; stroke-width:1; stroke-opacity:1; fill:none" points="
  373.62,59.2968 442.519,59.2968 442.519,43.4682 373.62,43.4682 373.62,59.2968 
  "/>
<polygon clip-path="url(#clip7202)" points="
373.62,249.24 442.519,249.24 442.519,233.411 373.62,233.411 373.62,249.24 
  " fill="#009af9" fill-opacity="1"/>
<polyline clip-path="url(#clip7202)" style="stroke:#000000; stroke-width:1; stroke-opacity:1; fill:none" points="
  373.62,249.24 442.519,249.24 442.519,233.411 373.62,233.411 373.62,249.24 
  "/>
<polygon clip-path="url(#clip7202)" points="
373.62,375.869 442.519,375.869 442.519,360.04 373.62,360.04 373.62,375.869 
  " fill="#009af9" fill-opacity="1"/>
<polyline clip-path="url(#clip7202)" style="stroke:#000000; stroke-width:1; stroke-opacity:1; fill:none" points="
  373.62,375.869 442.519,375.869 442.519,360.04 373.62,360.04 373.62,375.869 
  "/>
<polygon clip-path="url(#clip7202)" points="
442.519,90.954 476.968,90.954 476.968,75.1254 442.519,75.1254 442.519,90.954 
  " fill="#009af9" fill-opacity="1"/>
<polyline clip-path="url(#clip7202)" style="stroke:#000000; stroke-width:1; stroke-opacity:1; fill:none" points="
  442.519,90.954 476.968,90.954 476.968,75.1254 442.519,75.1254 442.519,90.954 
  "/>
<polygon clip-path="url(#clip7202)" points="
442.519,249.24 580.315,249.24 580.315,233.411 442.519,233.411 442.519,249.24 
  " fill="#009af9" fill-opacity="1"/>
<polyline clip-path="url(#clip7202)" style="stroke:#000000; stroke-width:1; stroke-opacity:1; fill:none" points="
  442.519,249.24 580.315,249.24 580.315,233.411 442.519,233.411 442.519,249.24 
  "/>
<polygon clip-path="url(#clip7202)" points="
442.519,360.04 580.315,360.04 580.315,344.211 442.519,344.211 442.519,360.04 
  " fill="#009af9" fill-opacity="1"/>
<polyline clip-path="url(#clip7202)" style="stroke:#000000; stroke-width:1; stroke-opacity:1; fill:none" points="
  442.519,360.04 580.315,360.04 580.315,344.211 442.519,344.211 442.519,360.04 
  "/>
<polygon clip-path="url(#clip7202)" points="
476.968,106.783 511.417,106.783 511.417,90.954 476.968,90.954 476.968,106.783 
  " fill="#009af9" fill-opacity="1"/>
<polyline clip-path="url(#clip7202)" style="stroke:#000000; stroke-width:1; stroke-opacity:1; fill:none" points="
  476.968,106.783 511.417,106.783 511.417,90.954 476.968,90.954 476.968,106.783 
  "/>
<polygon clip-path="url(#clip7202)" points="
511.417,138.44 545.866,138.44 545.866,122.611 511.417,122.611 511.417,138.44 
  " fill="#009af9" fill-opacity="1"/>
<polyline clip-path="url(#clip7202)" style="stroke:#000000; stroke-width:1; stroke-opacity:1; fill:none" points="
  511.417,138.44 545.866,138.44 545.866,122.611 511.417,122.611 511.417,138.44 
  "/>
<polygon clip-path="url(#clip7202)" points="
545.866,170.097 580.315,170.097 580.315,154.268 545.866,154.268 545.866,170.097 
  " fill="#009af9" fill-opacity="1"/>
<polyline clip-path="url(#clip7202)" style="stroke:#000000; stroke-width:1; stroke-opacity:1; fill:none" points="
  545.866,170.097 580.315,170.097 580.315,154.268 545.866,154.268 545.866,170.097 
  "/>
<polyline clip-path="url(#clip7202)" style="stroke:#000000; stroke-width:1; stroke-opacity:1; fill:none" points="
  132.477,336.297 184.15,51.3825 
  "/>
<polygon clip-path="url(#clip7202)" points="
98.0274,344.211 166.926,344.211 166.926,328.383 98.0274,328.383 98.0274,344.211 
  " fill="#3da44d" fill-opacity="1"/>
<polyline clip-path="url(#clip7202)" style="stroke:#000000; stroke-width:1; stroke-opacity:1; fill:none" points="
  98.0274,344.211 166.926,344.211 166.926,328.383 98.0274,328.383 98.0274,344.211 
  "/>
<polygon clip-path="url(#clip7202)" points="
166.926,59.2968 201.375,59.2968 201.375,43.4682 166.926,43.4682 166.926,59.2968 
  " fill="#3da44d" fill-opacity="1"/>
<polyline clip-path="url(#clip7202)" style="stroke:#000000; stroke-width:1; stroke-opacity:1; fill:none" points="
  166.926,59.2968 201.375,59.2968 201.375,43.4682 166.926,43.4682 166.926,59.2968 
  "/>
<polyline clip-path="url(#clip7202)" style="stroke:#000000; stroke-width:1; stroke-opacity:1; fill:none" points="
  235.824,320.469 218.599,83.0397 
  "/>
<polygon clip-path="url(#clip7202)" points="
166.926,328.383 304.722,328.383 304.722,312.554 166.926,312.554 166.926,328.383 
  " fill="#ac8d18" fill-opacity="1"/>
<polyline clip-path="url(#clip7202)" style="stroke:#000000; stroke-width:1; stroke-opacity:1; fill:none" points="
  166.926,328.383 304.722,328.383 304.722,312.554 166.926,312.554 166.926,328.383 
  "/>
<polygon clip-path="url(#clip7202)" points="
201.375,90.954 235.824,90.954 235.824,75.1254 201.375,75.1254 201.375,90.954 
  " fill="#ac8d18" fill-opacity="1"/>
<polyline clip-path="url(#clip7202)" style="stroke:#000000; stroke-width:1; stroke-opacity:1; fill:none" points="
  201.375,90.954 235.824,90.954 235.824,75.1254 201.375,75.1254 201.375,90.954 
  "/>
<polyline clip-path="url(#clip7202)" style="stroke:#000000; stroke-width:1; stroke-opacity:1; fill:none" points="
  408.069,367.954 459.743,83.0397 
  "/>
<polygon clip-path="url(#clip7202)" points="
373.62,375.869 442.519,375.869 442.519,360.04 373.62,360.04 373.62,375.869 
  " fill="#ed5d92" fill-opacity="1"/>
<polyline clip-path="url(#clip7202)" style="stroke:#000000; stroke-width:1; stroke-opacity:1; fill:none" points="
  373.62,375.869 442.519,375.869 442.519,360.04 373.62,360.04 373.62,375.869 
  "/>
<polygon clip-path="url(#clip7202)" points="
442.519,90.954 476.968,90.954 476.968,75.1254 442.519,75.1254 442.519,90.954 
  " fill="#ed5d92" fill-opacity="1"/>
<polyline clip-path="url(#clip7202)" style="stroke:#000000; stroke-width:1; stroke-opacity:1; fill:none" points="
  442.519,90.954 476.968,90.954 476.968,75.1254 442.519,75.1254 442.519,90.954 
  "/>
<polyline clip-path="url(#clip7202)" style="stroke:#000000; stroke-width:1; stroke-opacity:1; fill:none" points="
  511.417,352.126 494.192,98.8683 
  "/>
<polygon clip-path="url(#clip7202)" points="
442.519,360.04 580.315,360.04 580.315,344.211 442.519,344.211 442.519,360.04 
  " fill="#00a98d" fill-opacity="1"/>
<polyline clip-path="url(#clip7202)" style="stroke:#000000; stroke-width:1; stroke-opacity:1; fill:none" points="
  442.519,360.04 580.315,360.04 580.315,344.211 442.519,344.211 442.519,360.04 
  "/>
<polygon clip-path="url(#clip7202)" points="
476.968,106.783 511.417,106.783 511.417,90.954 476.968,90.954 476.968,106.783 
  " fill="#00a98d" fill-opacity="1"/>
<polyline clip-path="url(#clip7202)" style="stroke:#000000; stroke-width:1; stroke-opacity:1; fill:none" points="
  476.968,106.783 511.417,106.783 511.417,90.954 476.968,90.954 476.968,106.783 
  "/>
</svg>
