<?xml version="1.0" encoding="utf-8"?>
<svg xmlns="http://www.w3.org/2000/svg" xmlns:xlink="http://www.w3.org/1999/xlink" width="600" height="400" viewBox="0 0 600 400">
<defs>
  <clipPath id="clip2000">
    <rect x="0" y="0" width="600" height="400"/>
  </clipPath>
</defs>
<polygon clip-path="url(#clip2000)" points="
0,400 600,400 600,0 0,0 
  " fill="#ffffff" fill-opacity="1"/>
<defs>
  <clipPath id="clip2001">
    <rect x="120" y="0" width="421" height="400"/>
  </clipPath>
</defs>
<polygon clip-path="url(#clip2000)" points="
29.1292,375.869 580.315,375.869 580.315,11.811 29.1292,11.811 
  " fill="#ffffff" fill-opacity="1"/>
<defs>
  <clipPath id="clip2002">
    <rect x="29" y="11" width="552" height="365"/>
  </clipPath>
</defs>
<polyline clip-path="url(#clip2002)" style="stroke:#000000; stroke-width:0.5; stroke-opacity:0.1; fill:none" points="
  29.1292,375.869 29.1292,11.811 
  "/>
<polyline clip-path="url(#clip2002)" style="stroke:#000000; stroke-width:0.5; stroke-opacity:0.1; fill:none" points="
  184.758,375.869 184.758,11.811 
  "/>
<polyline clip-path="url(#clip2002)" style="stroke:#000000; stroke-width:0.5; stroke-opacity:0.1; fill:none" points="
  340.387,375.869 340.387,11.811 
  "/>
<polyline clip-path="url(#clip2002)" style="stroke:#000000; stroke-width:0.5; stroke-opacity:0.1; fill:none" points="
  496.016,375.869 496.016,11.811 
  "/>
<polyline clip-path="url(#clip2002)" style="stroke:#000000; stroke-width:0.5; stroke-opacity:0.1; fill:none" points="
  29.1292,363.458 580.315,363.458 
  "/>
<polyline clip-path="url(#clip2002)" style="stroke:#000000; stroke-width:0.5; stroke-opacity:0.1; fill:none" points="
  29.1292,280.717 580.315,280.717 
  "/>
<polyline clip-path="url(#clip2002)" style="stroke:#000000; stroke-width:0.5; stroke-opacity:0.1; fill:none" points="
  29.1292,197.977 580.315,197.977 
  "/>
<polyline clip-path="url(#clip2002)" style="stroke:#000000; stroke-width:0.5; stroke-opacity:0.1; fill:none" points="
  29.1292,115.236 580.315,115.236 
  "/>
<polyline clip-path="url(#clip2002)" style="stroke:#000000; stroke-width:0.5; stroke-opacity:0.1; fill:none" points="
  29.1292,32.4961 580.315,32.4961 
  "/>
<polyline clip-path="url(#clip2000)" style="stroke:#000000; stroke-width:1; stroke-opacity:1; fill:none" points="
  29.1292,375.869 580.315,375.869 
  "/>
<polyline clip-path="url(#clip2000)" style="stroke:#000000; stroke-width:1; stroke-opacity:1; fill:none" points="
  29.1292,375.869 29.1292,11.811 
  "/>
<polyline clip-path="url(#clip2000)" style="stroke:#000000; stroke-width:1; stroke-opacity:1; fill:none" points="
  29.1292,375.869 29.1292,370.408 
  "/>
<polyline clip-path="url(#clip2000)" style="stroke:#000000; stroke-width:1; stroke-opacity:1; fill:none" points="
  184.758,375.869 184.758,370.408 
  "/>
<polyline clip-path="url(#clip2000)" style="stroke:#000000; stroke-width:1; stroke-opacity:1; fill:none" points="
  340.387,375.869 340.387,370.408 
  "/>
<polyline clip-path="url(#clip2000)" style="stroke:#000000; stroke-width:1; stroke-opacity:1; fill:none" points="
  496.016,375.869 496.016,370.408 
  "/>
<polyline clip-path="url(#clip2000)" style="stroke:#000000; stroke-width:1; stroke-opacity:1; fill:none" points="
  29.1292,363.458 37.397,363.458 
  "/>
<polyline clip-path="url(#clip2000)" style="stroke:#000000; stroke-width:1; stroke-opacity:1; fill:none" points="
  29.1292,280.717 37.397,280.717 
  "/>
<polyline clip-path="url(#clip2000)" style="stroke:#000000; stroke-width:1; stroke-opacity:1; fill:none" points="
  29.1292,197.977 37.397,197.977 
  "/>
<polyline clip-path="url(#clip2000)" style="stroke:#000000; stroke-width:1; stroke-opacity:1; fill:none" points="
  29.1292,115.236 37.397,115.236 
  "/>
<polyline clip-path="url(#clip2000)" style="stroke:#000000; stroke-width:1; stroke-opacity:1; fill:none" points="
  29.1292,32.4961 37.397,32.4961 
  "/>
<g clip-path="url(#clip2000)">
<text style="fill:#000000; fill-opacity:1; font-family:Arial,Helvetica Neue,Helvetica,sans-serif; font-size:12; text-anchor:middle;" transform="rotate(0, 29.1292, 389.669)" x="29.1292" y="389.669">0</text>
</g>
<g clip-path="url(#clip2000)">
<text style="fill:#000000; fill-opacity:1; font-family:Arial,Helvetica Neue,Helvetica,sans-serif; font-size:12; text-anchor:middle;" transform="rotate(0, 184.758, 389.669)" x="184.758" y="389.669">2</text>
</g>
<g clip-path="url(#clip2000)">
<text style="fill:#000000; fill-opacity:1; font-family:Arial,Helvetica Neue,Helvetica,sans-serif; font-size:12; text-anchor:middle;" transform="rotate(0, 340.387, 389.669)" x="340.387" y="389.669">4</text>
</g>
<g clip-path="url(#clip2000)">
<text style="fill:#000000; fill-opacity:1; font-family:Arial,Helvetica Neue,Helvetica,sans-serif; font-size:12; text-anchor:middle;" transform="rotate(0, 496.016, 389.669)" x="496.016" y="389.669">6</text>
</g>
<g clip-path="url(#clip2000)">
<text style="fill:#000000; fill-opacity:1; font-family:Arial,Helvetica Neue,Helvetica,sans-serif; font-size:12; text-anchor:end;" transform="rotate(0, 23.1292, 367.958)" x="23.1292" y="367.958">40</text>
</g>
<g clip-path="url(#clip2000)">
<text style="fill:#000000; fill-opacity:1; font-family:Arial,Helvetica Neue,Helvetica,sans-serif; font-size:12; text-anchor:end;" transform="rotate(0, 23.1292, 285.217)" x="23.1292" y="285.217">50</text>
</g>
<g clip-path="url(#clip2000)">
<text style="fill:#000000; fill-opacity:1; font-family:Arial,Helvetica Neue,Helvetica,sans-serif; font-size:12; text-anchor:end;" transform="rotate(0, 23.1292, 202.477)" x="23.1292" y="202.477">60</text>
</g>
<g clip-path="url(#clip2000)">
<text style="fill:#000000; fill-opacity:1; font-family:Arial,Helvetica Neue,Helvetica,sans-serif; font-size:12; text-anchor:end;" transform="rotate(0, 23.1292, 119.736)" x="23.1292" y="119.736">70</text>
</g>
<g clip-path="url(#clip2000)">
<text style="fill:#000000; fill-opacity:1; font-family:Arial,Helvetica Neue,Helvetica,sans-serif; font-size:12; text-anchor:end;" transform="rotate(0, 23.1292, 36.9961)" x="23.1292" y="36.9961">80</text>
</g>
<polygon clip-path="url(#clip2002)" points="
29.1292,276.58 93.9746,276.58 93.9746,268.306 29.1292,268.306 29.1292,276.58 
  " fill="#009af9" fill-opacity="1"/>
<polyline clip-path="url(#clip2002)" style="stroke:#000000; stroke-width:1; stroke-opacity:1; fill:none" points="
  29.1292,276.58 93.9746,276.58 93.9746,268.306 29.1292,268.306 29.1292,276.58 
  "/>
<polygon clip-path="url(#clip2002)" points="
29.1292,375.869 93.9746,375.869 93.9746,367.595 29.1292,367.595 29.1292,375.869 
  " fill="#009af9" fill-opacity="1"/>
<polyline clip-path="url(#clip2002)" style="stroke:#000000; stroke-width:1; stroke-opacity:1; fill:none" points="
  29.1292,375.869 93.9746,375.869 93.9746,367.595 29.1292,367.595 29.1292,375.869 
  "/>
<polygon clip-path="url(#clip2002)" points="
61.5519,20.0851 93.9746,20.0851 93.9746,11.811 61.5519,11.811 61.5519,20.0851 
  " fill="#009af9" fill-opacity="1"/>
<polyline clip-path="url(#clip2002)" style="stroke:#000000; stroke-width:1; stroke-opacity:1; fill:none" points="
  61.5519,20.0851 93.9746,20.0851 93.9746,11.811 61.5519,11.811 61.5519,20.0851 
  "/>
<polygon clip-path="url(#clip2002)" points="
61.5519,44.9072 93.9746,44.9072 93.9746,36.6331 61.5519,36.6331 61.5519,44.9072 
  " fill="#009af9" fill-opacity="1"/>
<polyline clip-path="url(#clip2002)" style="stroke:#000000; stroke-width:1; stroke-opacity:1; fill:none" points="
  61.5519,44.9072 93.9746,44.9072 93.9746,36.6331 61.5519,36.6331 61.5519,44.9072 
  "/>
<polygon clip-path="url(#clip2002)" points="
93.9746,36.6331 126.397,36.6331 126.397,28.3591 93.9746,28.3591 93.9746,36.6331 
  " fill="#009af9" fill-opacity="1"/>
<polyline clip-path="url(#clip2002)" style="stroke:#000000; stroke-width:1; stroke-opacity:1; fill:none" points="
  93.9746,36.6331 126.397,36.6331 126.397,28.3591 93.9746,28.3591 93.9746,36.6331 
  "/>
<polygon clip-path="url(#clip2002)" points="
93.9746,61.4552 126.397,61.4552 126.397,53.1812 93.9746,53.1812 93.9746,61.4552 
  " fill="#009af9" fill-opacity="1"/>
<polyline clip-path="url(#clip2002)" style="stroke:#000000; stroke-width:1; stroke-opacity:1; fill:none" points="
  93.9746,61.4552 126.397,61.4552 126.397,53.1812 93.9746,53.1812 93.9746,61.4552 
  "/>
<polygon clip-path="url(#clip2002)" points="
126.397,44.9072 158.82,44.9072 158.82,36.6331 126.397,36.6331 126.397,44.9072 
  " fill="#009af9" fill-opacity="1"/>
<polyline clip-path="url(#clip2002)" style="stroke:#000000; stroke-width:1; stroke-opacity:1; fill:none" points="
  126.397,44.9072 158.82,44.9072 158.82,36.6331 126.397,36.6331 126.397,44.9072 
  "/>
<polygon clip-path="url(#clip2002)" points="
126.397,78.0033 158.82,78.0033 158.82,69.7293 126.397,69.7293 126.397,78.0033 
  " fill="#009af9" fill-opacity="1"/>
<polyline clip-path="url(#clip2002)" style="stroke:#000000; stroke-width:1; stroke-opacity:1; fill:none" points="
  126.397,78.0033 158.82,78.0033 158.82,69.7293 126.397,69.7293 126.397,78.0033 
  "/>
<polygon clip-path="url(#clip2002)" points="
158.82,61.4552 191.243,61.4552 191.243,53.1812 158.82,53.1812 158.82,61.4552 
  " fill="#009af9" fill-opacity="1"/>
<polyline clip-path="url(#clip2002)" style="stroke:#000000; stroke-width:1; stroke-opacity:1; fill:none" points="
  158.82,61.4552 191.243,61.4552 191.243,53.1812 158.82,53.1812 158.82,61.4552 
  "/>
<polygon clip-path="url(#clip2002)" points="
158.82,86.2774 191.243,86.2774 191.243,78.0033 158.82,78.0033 158.82,86.2774 
  " fill="#009af9" fill-opacity="1"/>
<polyline clip-path="url(#clip2002)" style="stroke:#000000; stroke-width:1; stroke-opacity:1; fill:none" points="
  158.82,86.2774 191.243,86.2774 191.243,78.0033 158.82,78.0033 158.82,86.2774 
  "/>
<polygon clip-path="url(#clip2002)" points="
191.243,78.0033 223.665,78.0033 223.665,69.7293 191.243,69.7293 191.243,78.0033 
  " fill="#009af9" fill-opacity="1"/>
<polyline clip-path="url(#clip2002)" style="stroke:#000000; stroke-width:1; stroke-opacity:1; fill:none" points="
  191.243,78.0033 223.665,78.0033 223.665,69.7293 191.243,69.7293 191.243,78.0033 
  "/>
<polygon clip-path="url(#clip2002)" points="
191.243,102.825 223.665,102.825 223.665,94.5514 191.243,94.5514 191.243,102.825 
  " fill="#009af9" fill-opacity="1"/>
<polyline clip-path="url(#clip2002)" style="stroke:#000000; stroke-width:1; stroke-opacity:1; fill:none" points="
  191.243,102.825 223.665,102.825 223.665,94.5514 191.243,94.5514 191.243,102.825 
  "/>
<polygon clip-path="url(#clip2002)" points="
223.665,86.2774 256.088,86.2774 256.088,78.0033 223.665,78.0033 223.665,86.2774 
  " fill="#009af9" fill-opacity="1"/>
<polyline clip-path="url(#clip2002)" style="stroke:#000000; stroke-width:1; stroke-opacity:1; fill:none" points="
  223.665,86.2774 256.088,86.2774 256.088,78.0033 223.665,78.0033 223.665,86.2774 
  "/>
<polygon clip-path="url(#clip2002)" points="
223.665,119.374 256.088,119.374 256.088,111.099 223.665,111.099 223.665,119.374 
  " fill="#009af9" fill-opacity="1"/>
<polyline clip-path="url(#clip2002)" style="stroke:#000000; stroke-width:1; stroke-opacity:1; fill:none" points="
  223.665,119.374 256.088,119.374 256.088,111.099 223.665,111.099 223.665,119.374 
  "/>
<polygon clip-path="url(#clip2002)" points="
256.088,102.825 288.511,102.825 288.511,94.5514 256.088,94.5514 256.088,102.825 
  " fill="#009af9" fill-opacity="1"/>
<polyline clip-path="url(#clip2002)" style="stroke:#000000; stroke-width:1; stroke-opacity:1; fill:none" points="
  256.088,102.825 288.511,102.825 288.511,94.5514 256.088,94.5514 256.088,102.825 
  "/>
<polygon clip-path="url(#clip2002)" points="
256.088,135.922 288.511,135.922 288.511,127.648 256.088,127.648 256.088,135.922 
  " fill="#009af9" fill-opacity="1"/>
<polyline clip-path="url(#clip2002)" style="stroke:#000000; stroke-width:1; stroke-opacity:1; fill:none" points="
  256.088,135.922 288.511,135.922 288.511,127.648 256.088,127.648 256.088,135.922 
  "/>
<polygon clip-path="url(#clip2002)" points="
288.511,119.374 320.933,119.374 320.933,111.099 288.511,111.099 288.511,119.374 
  " fill="#009af9" fill-opacity="1"/>
<polyline clip-path="url(#clip2002)" style="stroke:#000000; stroke-width:1; stroke-opacity:1; fill:none" points="
  288.511,119.374 320.933,119.374 320.933,111.099 288.511,111.099 288.511,119.374 
  "/>
<polygon clip-path="url(#clip2002)" points="
288.511,144.196 320.933,144.196 320.933,135.922 288.511,135.922 288.511,144.196 
  " fill="#009af9" fill-opacity="1"/>
<polyline clip-path="url(#clip2002)" style="stroke:#000000; stroke-width:1; stroke-opacity:1; fill:none" points="
  288.511,144.196 320.933,144.196 320.933,135.922 288.511,135.922 288.511,144.196 
  "/>
<polygon clip-path="url(#clip2002)" points="
288.511,177.292 320.933,177.292 320.933,169.018 288.511,169.018 288.511,177.292 
  " fill="#009af9" fill-opacity="1"/>
<polyline clip-path="url(#clip2002)" style="stroke:#000000; stroke-width:1; stroke-opacity:1; fill:none" points="
  288.511,177.292 320.933,177.292 320.933,169.018 288.511,169.018 288.511,177.292 
  "/>
<polygon clip-path="url(#clip2002)" points="
288.511,276.58 320.933,276.58 320.933,268.306 288.511,268.306 288.511,276.58 
  " fill="#009af9" fill-opacity="1"/>
<polyline clip-path="url(#clip2002)" style="stroke:#000000; stroke-width:1; stroke-opacity:1; fill:none" points="
  288.511,276.58 320.933,276.58 320.933,268.306 288.511,268.306 288.511,276.58 
  "/>
<polygon clip-path="url(#clip2002)" points="
320.933,160.744 353.356,160.744 353.356,152.47 320.933,152.47 320.933,160.744 
  " fill="#009af9" fill-opacity="1"/>
<polyline clip-path="url(#clip2002)" style="stroke:#000000; stroke-width:1; stroke-opacity:1; fill:none" points="
  320.933,160.744 353.356,160.744 353.356,152.47 320.933,152.47 320.933,160.744 
  "/>
<polygon clip-path="url(#clip2002)" points="
320.933,119.374 450.624,119.374 450.624,111.099 320.933,111.099 320.933,119.374 
  " fill="#009af9" fill-opacity="1"/>
<polyline clip-path="url(#clip2002)" style="stroke:#000000; stroke-width:1; stroke-opacity:1; fill:none" points="
  320.933,119.374 450.624,119.374 450.624,111.099 320.933,111.099 320.933,119.374 
  "/>
<polygon clip-path="url(#clip2002)" points="
320.933,185.566 353.356,185.566 353.356,177.292 320.933,177.292 320.933,185.566 
  " fill="#009af9" fill-opacity="1"/>
<polyline clip-path="url(#clip2002)" style="stroke:#000000; stroke-width:1; stroke-opacity:1; fill:none" points="
  320.933,185.566 353.356,185.566 353.356,177.292 320.933,177.292 320.933,185.566 
  "/>
<polygon clip-path="url(#clip2002)" points="
320.933,284.854 353.356,284.854 353.356,276.58 320.933,276.58 320.933,284.854 
  " fill="#009af9" fill-opacity="1"/>
<polyline clip-path="url(#clip2002)" style="stroke:#000000; stroke-width:1; stroke-opacity:1; fill:none" points="
  320.933,284.854 353.356,284.854 353.356,276.58 320.933,276.58 320.933,284.854 
  "/>
<polygon clip-path="url(#clip2002)" points="
353.356,177.292 385.779,177.292 385.779,169.018 353.356,169.018 353.356,177.292 
  " fill="#009af9" fill-opacity="1"/>
<polyline clip-path="url(#clip2002)" style="stroke:#000000; stroke-width:1; stroke-opacity:1; fill:none" points="
  353.356,177.292 385.779,177.292 385.779,169.018 353.356,169.018 353.356,177.292 
  "/>
<polygon clip-path="url(#clip2002)" points="
353.356,202.114 385.779,202.114 385.779,193.84 353.356,193.84 353.356,202.114 
  " fill="#009af9" fill-opacity="1"/>
<polyline clip-path="url(#clip2002)" style="stroke:#000000; stroke-width:1; stroke-opacity:1; fill:none" points="
  353.356,202.114 385.779,202.114 385.779,193.84 353.356,193.84 353.356,202.114 
  "/>
<polygon clip-path="url(#clip2002)" points="
353.356,301.402 385.779,301.402 385.779,293.128 353.356,293.128 353.356,301.402 
  " fill="#009af9" fill-opacity="1"/>
<polyline clip-path="url(#clip2002)" style="stroke:#000000; stroke-width:1; stroke-opacity:1; fill:none" points="
  353.356,301.402 385.779,301.402 385.779,293.128 353.356,293.128 353.356,301.402 
  "/>
<polygon clip-path="url(#clip2002)" points="
385.779,185.566 418.202,185.566 418.202,177.292 385.779,177.292 385.779,185.566 
  " fill="#009af9" fill-opacity="1"/>
<polyline clip-path="url(#clip2002)" style="stroke:#000000; stroke-width:1; stroke-opacity:1; fill:none" points="
  385.779,185.566 418.202,185.566 418.202,177.292 385.779,177.292 385.779,185.566 
  "/>
<polygon clip-path="url(#clip2002)" points="
385.779,218.662 418.202,218.662 418.202,210.388 385.779,210.388 385.779,218.662 
  " fill="#009af9" fill-opacity="1"/>
<polyline clip-path="url(#clip2002)" style="stroke:#000000; stroke-width:1; stroke-opacity:1; fill:none" points="
  385.779,218.662 418.202,218.662 418.202,210.388 385.779,210.388 385.779,218.662 
  "/>
<polygon clip-path="url(#clip2002)" points="
385.779,317.95 418.202,317.95 418.202,309.676 385.779,309.676 385.779,317.95 
  " fill="#009af9" fill-opacity="1"/>
<polyline clip-path="url(#clip2002)" style="stroke:#000000; stroke-width:1; stroke-opacity:1; fill:none" points="
  385.779,317.95 418.202,317.95 418.202,309.676 385.779,309.676 385.779,317.95 
  "/>
<polygon clip-path="url(#clip2002)" points="
418.202,235.21 450.624,235.21 450.624,226.936 418.202,226.936 418.202,235.21 
  " fill="#009af9" fill-opacity="1"/>
<polyline clip-path="url(#clip2002)" style="stroke:#000000; stroke-width:1; stroke-opacity:1; fill:none" points="
  418.202,235.21 450.624,235.21 450.624,226.936 418.202,226.936 418.202,235.21 
  "/>
<polygon clip-path="url(#clip2002)" points="
418.202,334.498 450.624,334.498 450.624,326.224 418.202,326.224 418.202,334.498 
  " fill="#009af9" fill-opacity="1"/>
<polyline clip-path="url(#clip2002)" style="stroke:#000000; stroke-width:1; stroke-opacity:1; fill:none" points="
  418.202,334.498 450.624,334.498 450.624,326.224 418.202,326.224 418.202,334.498 
  "/>
<polygon clip-path="url(#clip2002)" points="
450.624,102.825 483.047,102.825 483.047,94.5514 450.624,94.5514 450.624,102.825 
  " fill="#009af9" fill-opacity="1"/>
<polyline clip-path="url(#clip2002)" style="stroke:#000000; stroke-width:1; stroke-opacity:1; fill:none" points="
  450.624,102.825 483.047,102.825 483.047,94.5514 450.624,94.5514 450.624,102.825 
  "/>
<polygon clip-path="url(#clip2002)" points="
450.624,177.292 483.047,177.292 483.047,169.018 450.624,169.018 450.624,177.292 
  " fill="#009af9" fill-opacity="1"/>
<polyline clip-path="url(#clip2002)" style="stroke:#000000; stroke-width:1; stroke-opacity:1; fill:none" points="
  450.624,177.292 483.047,177.292 483.047,169.018 450.624,169.018 450.624,177.292 
  "/>
<polygon clip-path="url(#clip2002)" points="
450.624,243.484 483.047,243.484 483.047,235.21 450.624,235.21 450.624,243.484 
  " fill="#009af9" fill-opacity="1"/>
<polyline clip-path="url(#clip2002)" style="stroke:#000000; stroke-width:1; stroke-opacity:1; fill:none" points="
  450.624,243.484 483.047,243.484 483.047,235.21 450.624,235.21 450.624,243.484 
  "/>
<polygon clip-path="url(#clip2002)" points="
450.624,342.773 483.047,342.773 483.047,334.498 450.624,334.498 450.624,342.773 
  " fill="#009af9" fill-opacity="1"/>
<polyline clip-path="url(#clip2002)" style="stroke:#000000; stroke-width:1; stroke-opacity:1; fill:none" points="
  450.624,342.773 483.047,342.773 483.047,334.498 450.624,334.498 450.624,342.773 
  "/>
<polygon clip-path="url(#clip2002)" points="
483.047,86.2774 515.47,86.2774 515.47,78.0033 483.047,78.0033 483.047,86.2774 
  " fill="#009af9" fill-opacity="1"/>
<polyline clip-path="url(#clip2002)" style="stroke:#000000; stroke-width:1; stroke-opacity:1; fill:none" points="
  483.047,86.2774 515.47,86.2774 515.47,78.0033 483.047,78.0033 483.047,86.2774 
  "/>
<polygon clip-path="url(#clip2002)" points="
483.047,160.744 515.47,160.744 515.47,152.47 483.047,152.47 483.047,160.744 
  " fill="#009af9" fill-opacity="1"/>
<polyline clip-path="url(#clip2002)" style="stroke:#000000; stroke-width:1; stroke-opacity:1; fill:none" points="
  483.047,160.744 515.47,160.744 515.47,152.47 483.047,152.47 483.047,160.744 
  "/>
<polygon clip-path="url(#clip2002)" points="
483.047,260.032 515.47,260.032 515.47,251.758 483.047,251.758 483.047,260.032 
  " fill="#009af9" fill-opacity="1"/>
<polyline clip-path="url(#clip2002)" style="stroke:#000000; stroke-width:1; stroke-opacity:1; fill:none" points="
  483.047,260.032 515.47,260.032 515.47,251.758 483.047,251.758 483.047,260.032 
  "/>
<polygon clip-path="url(#clip2002)" points="
483.047,359.321 515.47,359.321 515.47,351.047 483.047,351.047 483.047,359.321 
  " fill="#009af9" fill-opacity="1"/>
<polyline clip-path="url(#clip2002)" style="stroke:#000000; stroke-width:1; stroke-opacity:1; fill:none" points="
  483.047,359.321 515.47,359.321 515.47,351.047 483.047,351.047 483.047,359.321 
  "/>
<polygon clip-path="url(#clip2002)" points="
515.47,78.0033 580.315,78.0033 580.315,69.7293 515.47,69.7293 515.47,78.0033 
  " fill="#009af9" fill-opacity="1"/>
<polyline clip-path="url(#clip2002)" style="stroke:#000000; stroke-width:1; stroke-opacity:1; fill:none" points="
  515.47,78.0033 580.315,78.0033 580.315,69.7293 515.47,69.7293 515.47,78.0033 
  "/>
<polygon clip-path="url(#clip2002)" points="
515.47,144.196 580.315,144.196 580.315,135.922 515.47,135.922 515.47,144.196 
  " fill="#009af9" fill-opacity="1"/>
<polyline clip-path="url(#clip2002)" style="stroke:#000000; stroke-width:1; stroke-opacity:1; fill:none" points="
  515.47,144.196 580.315,144.196 580.315,135.922 515.47,135.922 515.47,144.196 
  "/>
<polygon clip-path="url(#clip2002)" points="
515.47,276.58 547.892,276.58 547.892,268.306 515.47,268.306 515.47,276.58 
  " fill="#009af9" fill-opacity="1"/>
<polyline clip-path="url(#clip2002)" style="stroke:#000000; stroke-width:1; stroke-opacity:1; fill:none" points="
  515.47,276.58 547.892,276.58 547.892,268.306 515.47,268.306 515.47,276.58 
  "/>
<polygon clip-path="url(#clip2002)" points="
515.47,375.869 547.892,375.869 547.892,367.595 515.47,367.595 515.47,375.869 
  " fill="#009af9" fill-opacity="1"/>
<polyline clip-path="url(#clip2002)" style="stroke:#000000; stroke-width:1; stroke-opacity:1; fill:none" points="
  515.47,375.869 547.892,375.869 547.892,367.595 515.47,367.595 515.47,375.869 
  "/>
<polygon clip-path="url(#clip2002)" points="
547.892,202.114 580.315,202.114 580.315,193.84 547.892,193.84 547.892,202.114 
  " fill="#009af9" fill-opacity="1"/>
<polyline clip-path="url(#clip2002)" style="stroke:#000000; stroke-width:1; stroke-opacity:1; fill:none" points="
  547.892,202.114 580.315,202.114 580.315,193.84 547.892,193.84 547.892,202.114 
  "/>
<polyline clip-path="url(#clip2002)" style="stroke:#000000; stroke-width:1; stroke-opacity:1; fill:none" points="
  77.7632,15.948 110.186,57.3182 
  "/>
<polygon clip-path="url(#clip2002)" points="
61.5519,20.0851 93.9746,20.0851 93.9746,11.811 61.5519,11.811 61.5519,20.0851 
  " fill="#3da44d" fill-opacity="1"/>
<polyline clip-path="url(#clip2002)" style="stroke:#000000; stroke-width:1; stroke-opacity:1; fill:none" points="
  61.5519,20.0851 93.9746,20.0851 93.9746,11.811 61.5519,11.811 61.5519,20.0851 
  "/>
<polygon clip-path="url(#clip2002)" points="
93.9746,61.4552 126.397,61.4552 126.397,53.1812 93.9746,53.1812 93.9746,61.4552 
  " fill="#3da44d" fill-opacity="1"/>
<polyline clip-path="url(#clip2002)" style="stroke:#000000; stroke-width:1; stroke-opacity:1; fill:none" points="
  93.9746,61.4552 126.397,61.4552 126.397,53.1812 93.9746,53.1812 93.9746,61.4552 
  "/>
<polyline clip-path="url(#clip2002)" style="stroke:#000000; stroke-width:1; stroke-opacity:1; fill:none" points="
  142.609,40.7702 142.609,73.8663 
  "/>
<polygon clip-path="url(#clip2002)" points="
126.397,44.9072 158.82,44.9072 158.82,36.6331 126.397,36.6331 126.397,44.9072 
  " fill="#ac8d18" fill-opacity="1"/>
<polyline clip-path="url(#clip2002)" style="stroke:#000000; stroke-width:1; stroke-opacity:1; fill:none" points="
  126.397,44.9072 158.82,44.9072 158.82,36.6331 126.397,36.6331 126.397,44.9072 
  "/>
<polygon clip-path="url(#clip2002)" points="
126.397,78.0033 158.82,78.0033 158.82,69.7293 126.397,69.7293 126.397,78.0033 
  " fill="#ac8d18" fill-opacity="1"/>
<polyline clip-path="url(#clip2002)" style="stroke:#000000; stroke-width:1; stroke-opacity:1; fill:none" points="
  126.397,78.0033 158.82,78.0033 158.82,69.7293 126.397,69.7293 126.397,78.0033 
  "/>
<polyline clip-path="url(#clip2002)" style="stroke:#000000; stroke-width:1; stroke-opacity:1; fill:none" points="
  207.454,98.6884 239.877,115.236 
  "/>
<polygon clip-path="url(#clip2002)" points="
191.243,102.825 223.665,102.825 223.665,94.5514 191.243,94.5514 191.243,102.825 
  " fill="#ed5d92" fill-opacity="1"/>
<polyline clip-path="url(#clip2002)" style="stroke:#000000; stroke-width:1; stroke-opacity:1; fill:none" points="
  191.243,102.825 223.665,102.825 223.665,94.5514 191.243,94.5514 191.243,102.825 
  "/>
<polygon clip-path="url(#clip2002)" points="
223.665,119.374 256.088,119.374 256.088,111.099 223.665,111.099 223.665,119.374 
  " fill="#ed5d92" fill-opacity="1"/>
<polyline clip-path="url(#clip2002)" style="stroke:#000000; stroke-width:1; stroke-opacity:1; fill:none" points="
  223.665,119.374 256.088,119.374 256.088,111.099 223.665,111.099 223.665,119.374 
  "/>
<polyline clip-path="url(#clip2002)" style="stroke:#000000; stroke-width:1; stroke-opacity:1; fill:none" points="
  304.722,115.236 337.145,156.607 
  "/>
<polygon clip-path="url(#clip2002)" points="
288.511,119.374 320.933,119.374 320.933,111.099 288.511,111.099 288.511,119.374 
  " fill="#00a98d" fill-opacity="1"/>
<polyline clip-path="url(#clip2002)" style="stroke:#000000; stroke-width:1; stroke-opacity:1; fill:none" points="
  288.511,119.374 320.933,119.374 320.933,111.099 288.511,111.099 288.511,119.374 
  "/>
<polygon clip-path="url(#clip2002)" points="
320.933,160.744 353.356,160.744 353.356,152.47 320.933,152.47 320.933,160.744 
  " fill="#00a98d" fill-opacity="1"/>
<polyline clip-path="url(#clip2002)" style="stroke:#000000; stroke-width:1; stroke-opacity:1; fill:none" points="
  320.933,160.744 353.356,160.744 353.356,152.47 320.933,152.47 320.933,160.744 
  "/>
</svg>
